HIERARCHY
ROOT mixamorig:Hips
{
	OFFSET 0.000000 201.639420 0.000000
	CHANNELS 6 Xposition Yposition Zposition Xrotation Yrotation Zrotation
	JOINT mixamorig:Spine
	{
		OFFSET 0.006200 19.524994 -2.481800
		CHANNELS 3 Xrotation Yrotation Zrotation
		JOINT mixamorig:Spine1
		{
			OFFSET -0.000900 22.835007 -2.825400
			CHANNELS 3 Xrotation Yrotation Zrotation
			JOINT mixamorig:Spine2
			{
				OFFSET -0.020600 26.552490 -3.193300
				CHANNELS 3 Xrotation Yrotation Zrotation
				JOINT mixamorig:Neck
				{
					OFFSET -0.060000 30.701813 1.352200
					CHANNELS 3 Xrotation Yrotation Zrotation
					JOINT mixamorig:Head
					{
						OFFSET -0.087200 22.547607 3.670900
						CHANNELS 3 Xrotation Yrotation Zrotation
						JOINT mixamorig:HeadTop_End
						{
							OFFSET -0.830600 40.355194 7.893500
							CHANNELS 3 Xrotation Yrotation Zrotation
							End Site
							{
								OFFSET 0.000000 30.592346 0.000000
							}
						}
						JOINT mixamorig:RightEye
						{
							OFFSET -6.302100 18.118591 16.197100
							CHANNELS 3 Xrotation Yrotation Zrotation
							End Site
							{
								OFFSET 0.000000 30.592346 0.000000
							}
						}
						JOINT mixamorig:LeftEye
						{
							OFFSET 6.741500 18.382690 16.401899
							CHANNELS 3 Xrotation Yrotation Zrotation
							End Site
							{
								OFFSET 0.000000 30.592346 0.000000
							}
						}
					}
				}
				JOINT mixamorig:LeftShoulder
				{
					OFFSET 11.924900 18.230499 1.425400
					CHANNELS 3 Xrotation Yrotation Zrotation
					JOINT mixamorig:LeftArm
					{
						OFFSET 25.435989 -0.697632 -5.229300
						CHANNELS 3 Xrotation Yrotation Zrotation
						JOINT mixamorig:LeftForeArm
						{
							OFFSET 54.684776 0.000000 0.000000
							CHANNELS 3 Xrotation Yrotation Zrotation
							JOINT mixamorig:LeftHand
							{
								OFFSET 55.098175 0.000000 0.000000
								CHANNELS 3 Xrotation Yrotation Zrotation
								JOINT mixamorig:LeftHandMiddle1
								{
									OFFSET 23.369751 0.000000 0.000000
									CHANNELS 3 Xrotation Yrotation Zrotation
									JOINT mixamorig:LeftHandMiddle2
									{
										OFFSET 6.378677 0.000000 0.000000
										CHANNELS 3 Xrotation Yrotation Zrotation
										JOINT mixamorig:LeftHandMiddle3
										{
											OFFSET 6.148331 0.000000 0.000000
											CHANNELS 3 Xrotation Yrotation Zrotation
											JOINT mixamorig:LeftHandMiddle4
											{
												OFFSET 6.582504 0.000000 0.000000
												CHANNELS 3 Xrotation Yrotation Zrotation
												End Site
												{
													OFFSET -1.168900 6.395691 1.028606
												}
											}
										}
									}
								}
								JOINT mixamorig:LeftHandThumb1
								{
									OFFSET 7.235672 -3.848206 5.434273
									CHANNELS 3 Xrotation Yrotation Zrotation
									JOINT mixamorig:LeftHandThumb2
									{
										OFFSET 6.568451 -3.792297 3.792300
										CHANNELS 3 Xrotation Yrotation Zrotation
										JOINT mixamorig:LeftHandThumb3
										{
											OFFSET 6.063080 -3.500519 3.500518
											CHANNELS 3 Xrotation Yrotation Zrotation
											JOINT mixamorig:LeftHandThumb4
											{
												OFFSET 4.793182 -2.767334 2.767349
												CHANNELS 3 Xrotation Yrotation Zrotation
												End Site
												{
													OFFSET 0.101639 6.054260 1.275483
												}
											}
										}
									}
								}
								JOINT mixamorig:LeftHandIndex1
								{
									OFFSET 23.101074 -0.309540 4.992809
									CHANNELS 3 Xrotation Yrotation Zrotation
									JOINT mixamorig:LeftHandIndex2
									{
										OFFSET 6.226883 0.000000 0.000000
										CHANNELS 3 Xrotation Yrotation Zrotation
										JOINT mixamorig:LeftHandIndex3
										{
											OFFSET 6.094330 0.000000 0.000000
											CHANNELS 3 Xrotation Yrotation Zrotation
											JOINT mixamorig:LeftHandIndex4
											{
												OFFSET 5.482605 0.000000 0.000000
												CHANNELS 3 Xrotation Yrotation Zrotation
												End Site
												{
													OFFSET -1.427902 5.233032 0.797164
												}
											}
										}
									}
								}
								JOINT mixamorig:LeftHandRing1
								{
									OFFSET 22.299240 0.021149 -3.964172
									CHANNELS 3 Xrotation Yrotation Zrotation
									JOINT mixamorig:LeftHandRing2
									{
										OFFSET 6.321869 0.000000 0.000000
										CHANNELS 3 Xrotation Yrotation Zrotation
										JOINT mixamorig:LeftHandRing3
										{
											OFFSET 5.899796 0.000000 0.000000
											CHANNELS 3 Xrotation Yrotation Zrotation
											JOINT mixamorig:LeftHandRing4
											{
												OFFSET 6.517899 0.000000 0.000000
												CHANNELS 3 Xrotation Yrotation Zrotation
												End Site
												{
													OFFSET -1.637299 6.232208 0.980890
												}
											}
										}
									}
								}
								JOINT mixamorig:LeftHandPinky1
								{
									OFFSET 20.463791 -0.302338 -8.562233
									CHANNELS 3 Xrotation Yrotation Zrotation
									JOINT mixamorig:LeftHandPinky2
									{
										OFFSET 6.908646 0.000000 0.000000
										CHANNELS 3 Xrotation Yrotation Zrotation
										JOINT mixamorig:LeftHandPinky3
										{
											OFFSET 4.622849 0.000000 0.000000
											CHANNELS 3 Xrotation Yrotation Zrotation
											JOINT mixamorig:LeftHandPinky4
											{
												OFFSET 5.216080 0.000000 0.000000
												CHANNELS 3 Xrotation Yrotation Zrotation
												End Site
												{
													OFFSET -0.606308 5.116241 0.814926
												}
											}
										}
									}
								}
							}
						}
					}
				}
				JOINT mixamorig:RightShoulder
				{
					OFFSET -12.001300 18.284088 1.348900
					CHANNELS 3 Xrotation Yrotation Zrotation
					JOINT mixamorig:RightArm
					{
						OFFSET -25.308500 -0.751312 -5.164599
						CHANNELS 3 Xrotation Yrotation Zrotation
						JOINT mixamorig:RightForeArm
						{
							OFFSET -54.684429 0.000000 0.000000
							CHANNELS 3 Xrotation Yrotation Zrotation
							JOINT mixamorig:RightHand
							{
								OFFSET -55.150291 0.000000 0.000000
								CHANNELS 3 Xrotation Yrotation Zrotation
								JOINT mixamorig:RightHandMiddle1
								{
									OFFSET -23.317566 0.000000 0.000000
									CHANNELS 3 Xrotation Yrotation Zrotation
									JOINT mixamorig:RightHandMiddle2
									{
										OFFSET -6.378403 0.000000 0.000000
										CHANNELS 3 Xrotation Yrotation Zrotation
										JOINT mixamorig:RightHandMiddle3
										{
											OFFSET -6.148193 0.000000 0.000000
											CHANNELS 3 Xrotation Yrotation Zrotation
											JOINT mixamorig:RightHandMiddle4
											{
												OFFSET -6.583389 0.000000 0.000000
												CHANNELS 3 Xrotation Yrotation Zrotation
												End Site
												{
													OFFSET 1.171692 6.395905 1.029786
												}
											}
										}
									}
								}
								JOINT mixamorig:RightHandThumb1
								{
									OFFSET -7.190521 -3.860474 5.435846
									CHANNELS 3 Xrotation Yrotation Zrotation
									JOINT mixamorig:RightHandThumb2
									{
										OFFSET -6.567429 -3.791718 3.791708
										CHANNELS 3 Xrotation Yrotation Zrotation
										JOINT mixamorig:RightHandThumb3
										{
											OFFSET -6.062469 -3.500153 3.500166
											CHANNELS 3 Xrotation Yrotation Zrotation
											JOINT mixamorig:RightHandThumb4
											{
												OFFSET -4.792618 -2.767029 2.767022
												CHANNELS 3 Xrotation Yrotation Zrotation
												End Site
												{
													OFFSET -0.100327 6.053253 1.276754
												}
											}
										}
									}
								}
								JOINT mixamorig:RightHandIndex1
								{
									OFFSET -23.048981 -0.310791 4.992554
									CHANNELS 3 Xrotation Yrotation Zrotation
									JOINT mixamorig:RightHandIndex2
									{
										OFFSET -6.227539 0.000000 0.000000
										CHANNELS 3 Xrotation Yrotation Zrotation
										JOINT mixamorig:RightHandIndex3
										{
											OFFSET -6.095047 0.000000 0.000000
											CHANNELS 3 Xrotation Yrotation Zrotation
											JOINT mixamorig:RightHandIndex4
											{
												OFFSET -5.484772 0.000000 0.000000
												CHANNELS 3 Xrotation Yrotation Zrotation
												End Site
												{
													OFFSET 1.420593 5.237305 0.797056
												}
											}
										}
									}
								}
								JOINT mixamorig:RightHandRing1
								{
									OFFSET -22.246323 0.020569 -3.963762
									CHANNELS 3 Xrotation Yrotation Zrotation
									JOINT mixamorig:RightHandRing2
									{
										OFFSET -6.322128 0.000000 0.000000
										CHANNELS 3 Xrotation Yrotation Zrotation
										JOINT mixamorig:RightHandRing3
										{
											OFFSET -5.900024 0.000000 0.000000
											CHANNELS 3 Xrotation Yrotation Zrotation
											JOINT mixamorig:RightHandRing4
											{
												OFFSET -6.518356 0.000000 0.000000
												CHANNELS 3 Xrotation Yrotation Zrotation
												End Site
												{
													OFFSET 1.636398 6.232697 0.982186
												}
											}
										}
									}
								}
								JOINT mixamorig:RightHandPinky1
								{
									OFFSET -20.411011 -0.303314 -8.561701
									CHANNELS 3 Xrotation Yrotation Zrotation
									JOINT mixamorig:RightHandPinky2
									{
										OFFSET -6.907349 0.000000 0.000000
										CHANNELS 3 Xrotation Yrotation Zrotation
										JOINT mixamorig:RightHandPinky3
										{
											OFFSET -4.623840 0.000000 0.000000
											CHANNELS 3 Xrotation Yrotation Zrotation
											JOINT mixamorig:RightHandPinky4
											{
												OFFSET -5.218353 0.000000 0.000000
												CHANNELS 3 Xrotation Yrotation Zrotation
												End Site
												{
													OFFSET 0.602097 5.118835 0.816273
												}
											}
										}
									}
								}
							}
						}
					}
				}
			}
		}
	}
	JOINT mixamorig:LeftUpLeg
	{
		OFFSET 18.168400 -13.561905 -0.039000
		CHANNELS 3 Xrotation Yrotation Zrotation
		JOINT mixamorig:LeftLeg
		{
			OFFSET 0.577358 -80.825211 -3.695000
			CHANNELS 3 Xrotation Yrotation Zrotation
			JOINT mixamorig:LeftFoot
			{
				OFFSET -0.577356 -83.370262 -6.520700
				CHANNELS 3 Xrotation Yrotation Zrotation
				JOINT mixamorig:LeftToeBase
				{
					OFFSET 0.750401 -20.798306 25.135401
					CHANNELS 3 Xrotation Yrotation Zrotation
					JOINT mixamorig:LeftToe_End
					{
						OFFSET -0.000500 0.001200 19.917799
						CHANNELS 3 Xrotation Yrotation Zrotation
						End Site
						{
							OFFSET 0.000000 19.917805 0.000000
						}
					}
				}
			}
		}
	}
	JOINT mixamorig:RightUpLeg
	{
		OFFSET -18.162500 -13.585098 -0.041000
		CHANNELS 3 Xrotation Yrotation Zrotation
		JOINT mixamorig:RightLeg
		{
			OFFSET -0.595024 -80.945297 -3.631900
			CHANNELS 3 Xrotation Yrotation Zrotation
			JOINT mixamorig:RightFoot
			{
				OFFSET 0.595024 -83.218193 -6.561200
				CHANNELS 3 Xrotation Yrotation Zrotation
				JOINT mixamorig:RightToeBase
				{
					OFFSET -0.753601 -20.807106 25.115000
					CHANNELS 3 Xrotation Yrotation Zrotation
					JOINT mixamorig:RightToe_End
					{
						OFFSET 0.000299 0.001700 19.918200
						CHANNELS 3 Xrotation Yrotation Zrotation
						End Site
						{
							OFFSET 0.000000 19.918203 0.000000
						}
					}
				}
			}
		}
	}
}
MOTION
Frames: 4
Frame Time: 0.033333
-0.620074 197.343887 0.400633 -4.529032 -20.168927 0.121546 2.246382 0.336237 0.266084 4.060457 0.673994 0.309284 4.064534 0.648002 0.305550 -1.882498 0.670496 -2.256043 1.833592 -0.394545 2.224474 -0.000000 -0.000001 0.000000 -0.000000 -0.000001 0.000000 -0.000000 -0.000001 0.000000 0.255495 5.433386 -11.713764 22.824238 -25.605049 -47.150647 0.000040 -51.311243 0.000028 7.306349 4.464926 -8.353360 -2.232601 -3.924213 -23.225049 1.083834 3.713295 -32.532918 0.110945 1.233511 -10.277878 0.000002 0.000001 0.000004 -2.950454 7.640796 -14.314389 8.272921 23.125178 -2.805740 -1.419688 8.604378 5.004466 -0.000001 -0.000001 -0.000001 -3.293258 -4.344804 -28.964370 0.017777 0.495752 -4.111599 0.043683 0.775837 -6.442824 -0.000000 0.000001 0.000001 -0.964045 -0.529867 -25.252133 1.232356 3.935948 -34.759266 0.042027 0.761190 -6.320625 0.000000 0.000000 -0.000000 1.386134 6.141068 -14.535442 0.174624 -2.494364 -13.552898 0.086493 1.090226 -9.072936 0.000004 0.000002 -0.000001 3.161019 6.979765 10.668746 10.066045 13.872192 51.216283 -0.000016 37.979250 0.000043 9.540523 7.551727 19.301841 -1.515641 3.839605 17.599569 2.669930 -5.479956 51.926018 0.084525 -1.083133 8.924873 -0.000004 -0.000000 -0.000001 -9.544407 -0.100526 0.962848 15.743398 -37.520749 2.258356 5.378557 -17.330292 -2.073997 0.000004 0.000003 0.000000 -3.015881 4.695864 26.210837 1.480945 -4.294475 38.038536 0.013818 -0.438901 3.603939 0.000002 -0.000003 -0.000000 1.224706 -4.535759 20.368403 3.358446 -5.952945 58.830052 0.033849 -0.686732 5.644519 0.000000 -0.000003 0.000002 0.976684 -3.572749 28.166594 2.117998 -5.000607 45.888575 0.073490 -1.010294 8.320079 -0.000003 0.000001 0.000000 -13.190420 5.745297 6.385884 18.719105 10.247336 4.162376 2.579682 13.902999 -7.297700 0.516832 0.010552 -1.075763 -0.000000 0.000000 -0.000000 -11.866867 -11.728503 -5.761159 26.591197 10.061617 -2.243121 -10.970462 -9.451658 0.932260 0.000007 0.000002 0.000000 -0.000000 -0.000000 0.000000 
-0.038134 197.380569 0.443751 -4.243651 -20.072423 0.009858 2.292968 0.366316 0.202274 4.158185 0.734353 0.178278 4.162631 0.706876 0.174071 -2.057823 0.679931 -2.263562 1.560986 -0.417728 2.716258 0.000000 -0.000001 0.000000 0.000000 -0.000001 0.000000 0.000000 -0.000001 0.000000 0.257914 5.423781 -11.701622 23.176888 -26.105031 -46.171911 0.000001 -51.362702 -0.000020 6.706926 4.742342 -9.005285 -2.212821 -3.731064 -23.677689 1.097774 3.735014 -32.747513 0.109843 1.227521 -10.227636 0.000001 0.000000 0.000003 -2.995730 7.624065 -14.302904 8.204159 22.918006 -2.758857 -1.390229 8.619530 4.971488 -0.000002 -0.000001 -0.000000 -3.295099 -4.370527 -28.895774 0.017898 0.497416 -4.125442 0.043532 0.774739 -6.433798 -0.000001 0.000001 0.000001 -1.051415 -0.672623 -25.534034 1.266752 3.984946 -35.257180 0.042811 0.768142 -6.378631 -0.000000 0.000000 -0.000000 1.402686 6.072342 -14.975306 0.172671 -2.502520 -13.483454 0.085968 1.086916 -9.045196 -0.000002 0.000001 0.000002 3.169771 7.033933 10.586505 10.468223 14.247123 51.150368 0.000003 38.210739 -0.000012 9.181451 7.511945 19.436147 -1.546529 4.039989 17.343486 2.661656 -5.473483 51.839203 0.084230 -1.081165 8.908524 -0.000002 -0.000003 -0.000002 -9.586639 0.102100 1.017702 15.718261 -37.495396 2.252341 5.379189 -17.331458 -2.076112 0.000000 -0.000000 -0.000000 -3.016966 4.791570 25.946972 1.469102 -4.279355 37.880291 0.014464 -0.449192 3.688440 -0.000003 0.000000 -0.000001 1.184833 -4.469977 19.995560 3.362047 -5.955131 58.864845 0.033563 -0.683712 5.619537 0.000003 0.000002 0.000000 0.963029 -3.550237 27.909483 2.109059 -4.991949 45.785944 0.072983 -1.006832 8.291380 -0.000003 -0.000004 -0.000001 -13.607948 5.595304 6.471787 18.906720 10.225768 4.053970 2.446788 13.903631 -7.334658 0.574909 0.013052 -1.195535 0.000000 0.000001 0.000000 -12.048353 -11.869304 -5.764845 26.266102 10.055804 -2.180272 -10.702103 -9.380768 1.116607 -0.000010 0.000007 -0.000002 -0.000000 0.000000 -0.000000 
0.510626 197.411530 0.517637 -3.991814 -20.017790 -0.071429 2.344107 0.382688 0.154330 4.260196 0.767131 0.075692 4.264866 0.738107 0.071249 -2.197648 0.683382 -2.279929 1.243876 -0.453482 2.945295 -0.000000 -0.000002 0.000000 -0.000000 -0.000002 0.000000 -0.000000 -0.000002 0.000000 0.266432 5.387043 -11.687990 23.224363 -26.176741 -45.668929 0.000021 -51.626080 0.000039 6.132752 5.180499 -10.047380 -1.887601 -2.502470 -25.409938 1.260808 3.976504 -35.171591 0.104917 1.199862 -9.994443 0.000002 -0.000003 0.000002 -3.070006 7.588658 -14.234499 8.025942 22.378253 -2.638473 -1.413689 8.607151 4.997982 -0.000001 -0.000000 0.000000 -3.221319 -4.342653 -28.543917 0.013405 0.430419 -3.569087 0.042165 0.762482 -6.331489 -0.000001 -0.000001 -0.000001 -1.148782 -0.723026 -26.461983 1.320161 4.059258 -36.018962 0.042257 0.763096 -6.336563 -0.000002 0.000003 -0.000001 1.377850 5.983988 -14.970422 0.171831 -2.506049 -13.453358 0.084498 1.077611 -8.967171 0.000000 0.000002 0.000000 3.177914 7.079052 10.530518 10.627745 14.416156 51.061907 0.000002 38.691031 -0.000004 8.970911 7.496506 19.631179 -1.567422 4.140597 17.267362 2.655895 -5.468990 51.778920 0.084268 -1.081466 8.911025 -0.000003 -0.000001 0.000002 -9.641996 0.374380 1.066389 15.626633 -37.402809 2.216527 5.414278 -17.418302 -2.074405 -0.000002 0.000001 0.000001 -3.021019 4.823932 25.881340 1.456723 -4.263416 37.713870 0.014790 -0.454373 3.731158 0.000001 0.000000 0.000000 1.161572 -4.423901 19.839324 3.361954 -5.955066 58.863800 0.033805 -0.686204 5.640049 0.000001 0.000001 0.000003 0.961464 -3.548109 27.841711 2.099243 -4.982444 45.673075 0.072406 -1.002847 8.258428 -0.000001 0.000006 0.000001 -14.004182 5.505808 6.532331 19.144187 10.158818 3.926530 2.280843 13.957280 -7.264105 0.601711 0.014259 -1.250572 0.000000 -0.000000 0.000000 -12.213214 -11.962632 -5.788974 25.987756 10.029071 -2.145866 -10.468474 -9.296995 1.311139 -0.000019 0.000012 0.000004 0.000000 -0.000003 -0.000000 
1.000307 197.440582 0.617171 -3.773720 -20.017259 -0.116493 2.404503 0.390896 0.119978 4.373430 0.783561 -0.003383 4.378258 0.752667 -0.007961 -2.336420 0.688287 -2.310155 0.860749 -0.498576 3.085889 -0.000000 -0.000001 0.000000 -0.000000 -0.000001 0.000000 -0.000000 -0.000001 0.000000 0.281130 5.322639 -11.674450 23.158634 -26.097019 -45.309037 0.000014 -51.979792 0.000022 5.579203 5.620672 -11.357664 -1.031631 -0.165718 -28.560709 1.646876 4.473087 -40.408642 0.096371 1.150298 -9.577541 -0.000001 0.000002 0.000003 -3.205267 7.519531 -14.087949 7.703160 21.376595 -2.420329 -1.503022 8.559955 5.098943 -0.000001 0.000002 0.000001 -3.077471 -3.996928 -28.760031 0.004613 0.252750 -2.095141 0.038851 0.731891 -6.076331 -0.000000 -0.000002 0.000001 -1.086673 -0.309986 -28.297098 1.406151 4.174645 -37.216092 0.039472 0.737809 -6.125882 -0.000001 -0.000001 -0.000002 1.326957 5.746462 -15.172762 0.179064 -2.476039 -13.709019 0.081947 1.061299 -8.830200 0.000001 0.000001 0.000001 3.186168 7.122263 10.483925 10.711296 14.468846 50.902681 0.000003 39.345697 -0.000032 8.957820 7.490347 19.953291 -1.581951 4.203182 17.234333 2.647249 -5.462201 51.688122 0.083933 -1.079391 8.893771 0.000001 -0.000002 0.000001 -9.693354 0.627464 1.106166 15.533341 -37.308283 2.179550 5.430524 -17.458426 -2.073658 -0.000002 0.000001 0.000002 -3.019648 4.831214 25.852691 1.445565 -4.249006 37.563718 0.014934 -0.456468 3.748405 0.000002 -0.000001 -0.000002 1.146564 -4.392867 19.747224 3.352859 -5.949600 58.776168 0.033832 -0.686496 5.642570 0.000003 -0.000000 0.000003 0.962870 -3.550984 27.822229 2.087448 -4.970906 45.536919 0.071634 -0.997557 8.214505 0.000000 -0.000003 0.000002 -14.354329 5.441207 6.529098 19.389225 10.086986 3.841160 2.112433 14.074760 -7.121043 0.605865 0.014465 -1.259189 0.000000 -0.000000 -0.000000 -12.357419 -11.985192 -5.812790 25.755960 9.944520 -2.162529 -10.269463 -9.183198 1.525369 -0.000009 -0.000026 -0.000000 0.000000 0.000000 -0.000000 
